<?xml version="1.0" encoding="UTF-8"?><svg xmlns="http://www.w3.org/2000/svg" xmlns:xlink="http://www.w3.org/1999/xlink" viewBox="0 0 512 512"><defs><radialGradient id="b" cx="256" cy="256" fx="59.58" fy="54.37" r="434.77" gradientUnits="userSpaceOnUse"><stop offset=".46" stop-color="#fff"/><stop offset=".66" stop-color="#fdfdff" stop-opacity=".99"/><stop offset=".74" stop-color="#f6f9ff" stop-opacity=".98"/><stop offset=".79" stop-color="#eaf2ff" stop-opacity=".94"/><stop offset=".83" stop-color="#d9e8ff" stop-opacity=".9"/><stop offset=".86" stop-color="#c3dbff" stop-opacity=".84"/><stop offset=".9" stop-color="#a8cbff" stop-opacity=".76"/><stop offset=".92" stop-color="#87b8ff" stop-opacity=".67"/><stop offset=".95" stop-color="#62a2ff" stop-opacity=".57"/><stop offset=".97" stop-color="#3788ff" stop-opacity=".45"/><stop offset="1" stop-color="#096dff" stop-opacity=".33"/><stop offset="1" stop-color="#0068ff" stop-opacity=".3"/></radialGradient></defs><g style="isolation:isolate;"><g id="a"><rect width="512" height="512" style="fill:url(#b);"/><path d="m99.76,251.44c-24.54-7.49-47.4-18.46-68.6-32.92-5.44-3.78-8.47-12.41-6.59-18.76,7.49-24.54,18.46-47.4,32.92-68.6,3.78-5.44,12.41-8.47,18.76-6.59,24.54,7.49,47.4,18.46,68.6,32.92,5.44,3.78,8.47,12.41,6.59,18.76-7.49,24.54-18.46,47.4-32.92,68.6-3.78,5.44-12.41,8.47-18.76,6.59Z" style="fill:#00a0ff; stroke:#fff; stroke-miterlimit:10; stroke-width:16px;"/><path d="m489.25,381.2c-30.49-8.04-59.09-20.44-85.8-37.18-6.86-4.38-10.99-14.84-8.98-22.72,8.04-30.49,20.44-59.09,37.18-85.8,4.38-6.86,14.84-10.99,22.72-8.98,30.49,8.04,59.09,20.44,85.8,37.18,6.86,4.38,10.99,14.84,8.98,22.72-8.04,30.49-20.44,59.09-37.18,85.8-4.38,6.86-14.84,10.99-22.72,8.98Z" style="fill:#00beff; stroke:#fff; stroke-miterlimit:10; stroke-width:16px;"/><path d="m105.25,177.2c-30.49-8.04-59.09-20.44-85.8-37.18-6.86-4.38-10.99-14.84-8.98-22.72,8.04-30.49,20.44-59.09,37.18-85.8,4.38-6.86,14.84-10.99,22.72-8.98,30.49,8.04,59.09,20.44,85.8,37.18,6.86,4.38,10.99,14.84,8.98,22.72-8.04,30.49-20.44,59.09-37.18,85.8-4.38,6.86-14.84,10.99-22.72,8.98Z" style="fill:#00beff; stroke:#fff; stroke-miterlimit:10; stroke-width:16px;"/><path d="m74.66,192.71c-13.38-3.53-25.93-8.97-37.65-16.32-3.01-1.92-4.82-6.51-3.94-9.97,3.53-13.38,8.97-25.93,16.32-37.65,1.92-3.01,6.51-4.82,9.97-3.94,13.38,3.53,25.93,8.97,37.65,16.32,3.01,1.92,4.82,6.51,3.94,9.97-3.53,13.38-8.97,25.93-16.32,37.65-1.92,3.01-6.51,4.82-9.97,3.94Z" style="fill:#00beff; stroke:#fff; stroke-miterlimit:10; stroke-width:16px;"/><path d="m477.8,274.6c-21.22,14.42-44.1,25.36-68.65,32.82-6.35,1.87-14.98-1.18-18.75-6.62-14.42-21.22-25.36-44.1-32.82-68.65-1.87-6.35,1.18-14.98,6.62-18.75,21.22-14.42,44.1-25.36,68.65-32.82,6.35-1.87,14.98,1.18,18.75,6.62,14.42,21.22,25.36,44.1,32.82,68.65,1.87,6.35-1.18,14.98-6.62,18.75Z" style="fill:#00a0ff; stroke:#fff; stroke-miterlimit:10; stroke-width:16px;"/><path d="m396.15,522.11c-28.12,14.25-57.73,24-88.82,29.24-8.04,1.28-18.07-3.78-21.82-11.01-14.25-28.12-24-57.73-29.24-88.82-1.28-8.04,3.78-18.07,11.01-21.82,28.12-14.25,57.73-24,88.82-29.24,8.04-1.28,18.07,3.78,21.82,11.01,14.25,28.12,24,57.73,29.24,88.82,1.28,8.04-3.78,18.07-11.01,21.82Z" style="fill:orange; stroke:#fff; stroke-miterlimit:10; stroke-width:16px;"/><path d="m10.08,122.15c-27.47-15.47-52.02-34.68-73.65-57.62-5.53-5.97-6.89-17.13-2.96-24.26C-51.06,12.8-31.85-11.75-8.91-33.38c5.97-5.53,17.13-6.89,24.26-2.96C42.82-20.87,67.37-1.66,89,21.29c5.53,5.97,6.89,17.13,2.96,24.26-15.47,27.47-34.68,52.02-57.62,73.65-5.97,5.53-17.13,6.89-24.26,2.96Z" style="fill:orange; stroke:#fff; stroke-miterlimit:10; stroke-width:16px;"/><path d="m502.5,548.38c-40.45-5.34-79.2-16.57-116.23-33.7-9.52-4.51-16.54-17.25-15.25-27.7,5.34-40.45,16.57-79.2,33.7-116.23,4.51-9.52,17.25-16.54,27.7-15.25,40.45,5.34,79.2,16.57,116.23,33.7,9.52,4.51,16.54,17.25,15.25,27.7-5.34,40.45-16.57,79.2-33.7,116.23-4.51,9.52-17.25,16.53-27.7,15.25Z" style="fill:#e63c00; stroke:#fff; stroke-miterlimit:10; stroke-width:16px;"/><path d="m393.34,436.47c-30.93-6.1-60.26-16.66-87.98-31.68-7.12-3.94-11.91-14.11-10.4-22.11,6.1-30.93,16.66-60.26,31.68-87.98,3.94-7.12,14.11-11.91,22.11-10.4,30.93,6.1,60.26,16.66,87.98,31.68,7.12,3.94,11.91,14.11,10.4,22.11-6.1,30.93-16.66,60.26-31.68,87.98-3.94,7.12-14.11,11.91-22.11,10.4Z" style="fill:#e4eaef; stroke:#fff; stroke-miterlimit:10; stroke-width:16px;"/><path d="m35.53,185.86c-21.05-4.15-41.01-11.34-59.88-21.56-4.85-2.68-8.1-9.6-7.08-15.05,4.15-21.05,11.34-41.01,21.56-59.88,2.68-4.85,9.6-8.1,15.05-7.08,21.05,4.15,41.01,11.34,59.88,21.56,4.85,2.68,8.1,9.6,7.08,15.05-4.15,21.05-11.34,41.01-21.56,59.88-2.68,4.85-9.6,8.1-15.05,7.08Z" style="fill:#e4eaef; stroke:#fff; stroke-miterlimit:10; stroke-width:16px;"/><path d="m354.34,320.47c-30.93-6.1-60.26-16.66-87.98-31.68-7.12-3.94-11.91-14.11-10.4-22.11,6.1-30.93,16.66-60.26,31.68-87.98,3.94-7.12,14.11-11.91,22.11-10.4,30.93,6.1,60.26,16.66,87.98,31.68,7.12,3.94,11.91,14.11,10.4,22.11-6.1,30.93-16.66,60.26-31.68,87.98-3.94,7.12-14.11,11.91-22.11,10.4Z" style="fill:#e4eaef; stroke:#fff; stroke-miterlimit:10; stroke-width:16px;"/><path d="m384.74,297.15c-5.51,16.66-13.38,32.13-23.6,46.39-2.67,3.66-8.62,5.6-12.93,4.21-16.66-5.51-32.13-13.38-46.39-23.6-3.66-2.67-5.6-8.62-4.21-12.93,5.51-16.66,13.38-32.13,23.6-46.39,2.67-3.66,8.62-5.6,12.93-4.21,16.66,5.51,32.13,13.38,46.39,23.6,3.66,2.67,5.6,8.62,4.21,12.93Z" style="fill:#00a0ff; stroke:#fff; stroke-miterlimit:10; stroke-width:16px;"/><rect x="-69" y="-55" width="644" height="676" style="mix-blend-mode:color;"/></g></g></svg>